<?xml version="1.0" encoding="UTF-8"?><svg id="Calque_2" xmlns="http://www.w3.org/2000/svg" viewBox="0 0 820.16 199.45"><g id="Calque_1"><polygon points="808.01 48.19 663.22 48.19 665.15 26.02 809.95 26.02 808.01 48.19"/><polygon points="241.47 129.71 9.31 129.71 12.42 107.54 244.58 107.54 241.47 129.71"/><path d="M57.49,1.11h18.59l-3.84,43.86c-.46,5.21-2.09,9.72-4.91,13.52-2.82,3.8-6.53,6.73-11.15,8.79-4.61,2.06-9.85,3.09-15.71,3.09s-10.99-1.03-15.24-3.09c-4.25-2.06-7.45-4.99-9.58-8.79-2.13-3.8-2.97-8.31-2.51-13.52L16.98,1.11h18.59l-3.7,42.25c-.19,2.12.12,4.01.91,5.67.79,1.66,1.98,2.96,3.55,3.89,1.58.94,3.43,1.4,5.54,1.4s4.07-.47,5.81-1.4c1.73-.94,3.14-2.23,4.22-3.89,1.08-1.66,1.71-3.55,1.9-5.67L57.49,1.11Z"/><path d="M78.91,69.57L84.9,1.11h18.59l-4.68,53.48h27.68l-1.31,14.98h-46.26Z"/><path d="M135.47,16.09l1.31-14.98h59.5l-1.31,14.98h-20.59l-4.68,53.48h-18.32l4.68-53.48h-20.59Z"/><path d="M197.24,69.57L203.23,1.11h29.55c5.08,0,9.45.93,13.09,2.77,3.65,1.85,6.38,4.51,8.19,7.99,1.81,3.48,2.51,7.64,2.08,12.5-.43,4.9-1.88,9.04-4.34,12.4-2.47,3.36-5.73,5.91-9.79,7.62-4.06,1.72-8.7,2.57-13.91,2.57h-17.65l1.26-14.44h13.9c2.18,0,4.07-.27,5.67-.82,1.6-.55,2.87-1.42,3.81-2.62.94-1.2,1.5-2.77,1.67-4.71s-.11-3.56-.83-4.8c-.73-1.24-1.84-2.15-3.34-2.74-1.5-.59-3.34-.89-5.52-.89h-6.55l-4.69,53.62h-18.59ZM240.1,38.15l14.37,31.42h-20.19l-13.96-31.42h19.79Z"/><path d="M277.86,69.57h-20.06L286.39,1.11h25.4l16.61,68.46h-20.06l-10.63-49.6h-.54l-19.32,49.6ZM276.48,42.56h37.71l-1.22,13.9h-37.71l1.22-13.9Z"/><path d="M375.81,15.91l1.31-14.98h59.5l-1.31,14.98h-20.59l-4.68,53.48h-18.32l4.68-53.48h-20.59Z"/><path d="M506.89,35.16c-.67,7.62-2.71,14.04-6.13,19.27-3.42,5.23-7.77,9.18-13.04,11.87-5.27,2.69-11.01,4.03-17.2,4.03s-11.75-1.35-16.54-4.06c-4.79-2.71-8.43-6.67-10.93-11.9-2.5-5.23-3.41-11.63-2.75-19.2.67-7.62,2.7-14.04,6.12-19.27,3.41-5.23,7.74-9.18,13-11.87,5.26-2.69,11.01-4.03,17.25-4.03s11.69,1.34,16.49,4.03c4.8,2.69,8.45,6.64,10.96,11.87,2.51,5.23,3.43,11.65,2.76,19.27ZM487.77,35.16c.36-4.1.12-7.56-.71-10.38-.83-2.82-2.24-4.96-4.22-6.42-1.98-1.46-4.5-2.19-7.58-2.19s-5.73.73-7.96,2.19-4.01,3.6-5.34,6.42c-1.33,2.82-2.17,6.28-2.53,10.38-.36,4.1-.12,7.56.71,10.38.83,2.82,2.24,4.96,4.22,6.42,1.98,1.46,4.5,2.19,7.58,2.19s5.73-.73,7.96-2.19c2.23-1.46,4.01-3.6,5.34-6.42,1.33-2.82,2.17-6.28,2.53-10.38Z"/><path d="M558.96.94h18.59l-3.84,43.86c-.46,5.21-2.09,9.72-4.91,13.52-2.82,3.8-6.53,6.73-11.15,8.79-4.61,2.06-9.85,3.09-15.71,3.09s-10.99-1.03-15.24-3.09c-4.25-2.06-7.45-4.99-9.58-8.79-2.13-3.8-2.97-8.31-2.51-13.52l3.84-43.86h18.59l-3.7,42.25c-.19,2.12.12,4.01.91,5.67.79,1.66,1.98,2.96,3.55,3.89,1.58.94,3.43,1.4,5.54,1.4s4.07-.47,5.81-1.4c1.73-.94,3.14-2.23,4.22-3.89,1.08-1.66,1.71-3.55,1.9-5.67l3.7-42.25Z"/><path d="M580.38,69.39l5.99-68.46h29.55c5.08,0,9.45.93,13.09,2.77,3.65,1.85,6.38,4.51,8.19,7.99,1.81,3.48,2.51,7.64,2.08,12.5-.43,4.9-1.88,9.04-4.34,12.4-2.47,3.36-5.73,5.91-9.79,7.62-4.06,1.72-8.7,2.57-13.91,2.57h-17.65l1.26-14.44h13.9c2.18,0,4.07-.27,5.67-.82,1.6-.55,2.87-1.42,3.81-2.62.94-1.2,1.5-2.77,1.67-4.71.17-1.96-.11-3.56-.83-4.8-.73-1.24-1.84-2.15-3.34-2.74-1.5-.59-3.34-.89-5.52-.89h-6.55l-4.69,53.62h-18.59ZM623.24,37.97l14.37,31.42h-20.19l-13.96-31.42h19.79Z"/><path d="M296.74,154.96h-26.19l5.96-68.08h25.93c7,0,12.94,1.36,17.81,4.07,4.87,2.71,8.47,6.61,10.81,11.7,2.34,5.09,3.19,11.17,2.57,18.27-.62,7.09-2.54,13.18-5.75,18.27-3.22,5.09-7.48,8.99-12.79,11.7-5.31,2.71-11.43,4.07-18.34,4.07ZM290.4,139.27h7.05c3.37,0,6.29-.54,8.77-1.63,2.48-1.09,4.46-2.96,5.94-5.62,1.48-2.66,2.43-6.36,2.85-11.1.41-4.74.1-8.44-.94-11.1-1.04-2.66-2.74-4.53-5.09-5.62-2.35-1.09-5.3-1.63-8.85-1.63h-6.52l-3.21,36.7Z"/><path d="M339.16,154.96l5.96-68.08h49.07l-1.3,14.89h-30.58l-1.02,11.7h28.06l-1.3,14.89h-28.06l-1.02,11.7h30.45l-1.3,14.89h-48.93Z"/><path d="M415.11,154.96l5.96-68.08h18.48l-4.65,53.19h27.52l-1.3,14.89h-46.01Z"/><path d="M486.25,154.96h-19.94l28.43-68.08h25.26l16.52,68.08h-19.94l-10.58-49.33h-.53l-19.21,49.33ZM484.88,128.1h37.5l-1.21,13.83h-37.5l1.21-13.83Z"/><path d="M551.8,199.18l9.95-113.78h49.11c8.44,0,15.7,1.54,21.76,4.61,6.06,3.07,10.6,7.5,13.62,13.28,3.01,5.78,4.17,12.7,3.46,20.78-.71,8.15-3.12,15.02-7.22,20.61-4.1,5.59-9.52,9.82-16.27,12.67-6.75,2.85-14.46,4.28-23.12,4.28h-29.33l2.1-24h23.11c3.63,0,6.77-.45,9.42-1.36,2.65-.91,4.76-2.36,6.33-4.36,1.56-2,2.49-4.61,2.77-7.83.29-3.26-.18-5.92-1.39-7.97-1.21-2.06-3.06-3.57-5.55-4.56-2.49-.98-5.55-1.47-9.18-1.47h-10.89l-7.8,89.11h-30.89ZM623.04,146.96l23.88,52.22h-33.56l-23.21-52.22h32.89Z"/><path d="M698.4,85.4l-9.95,113.78h-30.89l9.95-113.78h30.89Z"/><polygon points="526.73 199.18 0 199.18 3.86 177.01 530.59 177.01 526.73 199.18"/><path d="M802.67,85.73h-42.2l-57.59,113.72h33.32c3.78-4.14,7.57-8.27,11.35-12.41,7.35-8.03,14.03-16.65,19.96-25.78.98-1.51,1.97-3.03,2.95-4.54.45,1.37.9,2.75,1.35,4.12,3.44,10.53,7.75,20.76,12.9,30.58,1.35,2.57,2.69,5.13,4.04,7.7,10.47.11,20.94.22,31.41.32l-17.49-113.72ZM761.28,159.72c-7.49-1.15-14.99-2.3-22.48-3.45-3.33-.52-3.75-5.15-.57-6.26,7.57-2.64,14.53-6.09,22.1-8.73l8.56,9.13-7.6,9.31ZM763.8,133.55c3-7.78,5.99-15.57,8.99-23.35,1.27-3.27,6.06-2.68,6.49.8.95,7.83,1.89,15.66,2.84,23.49l-10.15,9.44-8.17-10.37ZM803.8,156.51c-7.49,1.15-14.99,2.3-22.48,3.45l-7.47-9.66,9.25-8.09c7.57,2.64,13.7,5.4,21.27,8.04,3.18,1.12,2.76,5.74-.57,6.26Z"/></g></svg>