<?xml version="1.0" encoding="UTF-8"?><svg id="Calque_2" xmlns="http://www.w3.org/2000/svg" viewBox="0 0 416.31 369.89"><g id="Calque_1-2"><polygon points="54.52 286.82 58.4 284.74 53.14 280.79 48.42 277.24 49.79 271.5 50.61 268.09 50.91 266.85 51.16 266.4 47.51 261.53 32.13 238.19 17.58 213.69 25.4 196.17 35.54 173.46 56.01 135.5 66.66 91.78 50.1 93.76 41.3 129.85 21.79 166.04 21.51 166.56 21.27 167.09 3.31 207.32 0 214.71 4.14 221.67 26.81 259.84 27.25 260.57 27.75 261.25 53.66 295.74 54.19 296.45 54.81 297.1 55.13 297.44 54.85 292.56 54.52 286.82"/><polygon points="296.67 326.19 252.56 329.77 209.92 331.46 167.95 345.47 124.1 352.94 105.59 329.78 104.62 330.53 103.43 330.99 92.48 335.28 90.57 336.03 111.89 362.7 117.64 369.89 126.72 368.34 170.57 360.88 171.76 360.67 172.9 360.29 212.75 346.99 253.18 345.39 253.51 345.38 253.83 345.35 297.94 341.77 308.44 340.91 311.59 330.86 319.53 305.49 302.74 306.8 296.67 326.19"/><polygon points="79.39 48.65 123.79 43.52 167.82 35.46 214.27 24.98 260.94 16.98 286.63 49.79 309.92 84.33 335.51 115.83 363.29 145.79 345.96 191.41 330.96 237.79 330.04 239.76 347.38 237.82 360.71 196.59 377.9 151.35 381.34 142.28 374.75 135.17 347.32 105.57 322.49 75.02 299.59 41.05 299.27 40.59 298.93 40.15 273.24 7.34 267.49 0 258.29 1.58 211.63 9.58 211.23 9.65 210.84 9.74 164.69 20.14 121.49 28.05 77.6 33.13 67.33 34.31 64.4 44.22 59.4 61.15 76.29 59.14 79.39 48.65"/><polygon points="362.95 244.53 344.72 246.57 286.84 253.04 288.31 266.24 338.09 260.68 338.09 260.67 356.32 258.64 367.98 257.33 401.74 253.56 400.26 240.36 374.42 243.25 362.95 244.53"/><polygon points="41.77 85.69 52.54 84.41 69.43 82.39 113.98 77.08 112.41 63.9 73.52 68.53 56.63 70.54 45.82 71.83 7.14 76.44 8.71 89.63 41.77 85.69"/><polygon points="415.28 271.62 374.28 274.81 362.81 275.7 345.52 277.04 272.61 282.71 273.64 295.95 341.25 290.69 358.03 289.39 368.77 288.56 416.31 284.86 415.28 271.62"/><polygon points="293.83 123.6 291.69 129.6 286.77 137.58 274.61 129.8 263.2 119.05 250.26 110.11 244.57 106.41 237.04 101.51 233.52 97.08 227.11 89 219.79 83.82 213.87 79.64 219.38 69.13 227.17 68.36 230.78 68 237.65 78.49 242.58 86.01 250.88 77.56 260.97 70.61 271.89 75.98 280.85 82.22 284.68 91 285.55 92.99 285.27 106.52 279.39 111.66 290.56 120.9 293.83 123.6"/><polygon points="291.18 175.49 280.94 177.2 266.12 181.06 252.99 171.01 238.58 162.46 238.18 161.71 230.27 146.68 223.48 144.97 219.66 144.01 212.45 142.19 208.34 137.36 201.58 129.43 192.05 115.1 174.13 110.71 173.89 107.64 172.11 85.55 176.34 78.77 197.91 82.48 211.29 92.24 217.75 96.69 224.97 101.65 227.04 103.39 229.99 107.11 230.9 108.26 232.13 109.06 239.12 113.6 242.27 116.36 250.04 123.18 255.17 127.09 263.19 133.22 274.89 144.99 290.35 152.18 291.18 175.49"/><polygon points="135.26 317.33 131.17 327.05 127.79 326.38 123.18 325.47 116.48 320.85 107.55 314.7 101.01 319.74 100.8 319.83 90.07 324.03 83.02 323.08 77.95 322.39 69.44 315.61 65.98 305.1 65.54 303.76 65.18 297.43 64.7 289.17 69.81 286.43 72.49 284.99 75.95 283.14 71.84 280.05 59.42 270.72 59.97 268.41 60.23 267.31 64.01 260.62 65.9 257.28 66.06 256.51 66.21 255.77 66.26 255.79 75.31 269.11 85.75 275.65 88.63 277.46 99.6 288.61 112.53 297.44 124.34 307.6 135.26 317.33"/><polygon points="173.99 306.88 171.67 315.27 162.09 315.49 152.73 315.71 148.59 311.9 140.63 304.58 134.26 300.7 126.33 295.88 112.61 286.5 110.96 283.33 104.35 270.63 94.8 263.95 90.74 261.11 86.6 257.76 77.87 250.71 72.15 248.44 68.36 246.94 61.64 244.28 61.38 234.88 61.03 222.09 63.82 219.07 66.41 216.28 71.11 216.28 85.23 216.27 98.39 226.31 110.45 231.99 113.86 233.59 116.03 237.42 118.43 241.62 122.56 248.9 135.21 259.54 148.8 269.05 152.04 270.85 163.53 277.22 172.01 292.81 173.99 306.88"/><polygon points="227.88 164.73 215.75 173.03 207.61 185.89 204.34 188.85 196.34 196.11 190.66 208.97 190 210.48 186.18 214.82 180.04 221.8 170.58 233.54 163.87 241.78 161.05 245.23 151.46 251.99 145.12 249.53 135.62 245.86 128.7 239.09 125.62 236.08 121.79 232.32 122.79 231.09 131.52 220.38 141.49 209.07 149.57 196.16 154.63 189.61 158.8 184.22 164.16 181.73 173.87 177.21 179.09 168.76 181.88 164.24 186.31 156.86 189.77 151.12 199.82 142.8 202.48 144.36 214.93 151.67 215.5 152.24 227.88 164.73"/></g></svg>