<?xml version="1.0" encoding="UTF-8"?><svg id="Calque_2" xmlns="http://www.w3.org/2000/svg" viewBox="0 0 398.1 369.89"><g id="Calque_1-2"><polygon points="393.63 256.91 359.87 260.68 348.21 261.99 329.98 264.01 329.98 264.03 280.2 269.59 278.73 256.39 336.61 249.91 354.84 247.87 366.31 246.59 392.15 243.7 393.63 256.91"/><polygon points="398.1 284.94 350.56 288.64 339.82 289.47 323.04 290.77 255.43 296.03 254.4 282.79 327.31 277.12 344.6 275.78 356.07 274.89 397.07 271.7 398.1 284.94"/><polygon points="113.98 77.08 69.43 82.39 52.54 84.41 41.77 85.69 8.71 89.63 7.14 76.44 45.82 71.83 56.63 70.54 73.52 68.53 112.41 63.9 113.98 77.08"/><polygon points="113.99 77.08 113.98 77.08 112.41 63.9 113.99 77.08"/><path d="M112.41,63.9l1.57,13.18h.01l-1.58-13.18ZM112.41,63.9l1.57,13.18h.01l-1.58-13.18ZM112.41,63.9l1.57,13.18h.01l-1.58-13.18Z"/><polygon points="296.67 326.19 252.56 329.77 209.92 331.46 167.95 345.47 124.1 352.94 98.17 320.5 85.12 314.83 75.24 310.53 82.64 303.74 66.15 286.35 47.51 261.53 32.13 238.19 17.58 213.69 25.4 196.17 34.3 176.24 35.54 173.46 56.01 135.5 66.66 91.78 50.1 93.76 41.3 129.85 21.79 166.04 21.51 166.56 21.27 167.09 3.31 207.32 0 214.71 4.14 221.67 26.81 259.84 27.25 260.57 27.75 261.25 53.66 295.74 54.19 296.45 54.81 297.1 84.42 328.34 111.89 362.7 117.64 369.89 126.72 368.34 170.57 360.88 171.76 360.67 172.9 360.29 212.75 346.99 253.18 345.39 253.51 345.38 253.83 345.35 297.94 341.77 308.44 340.91 311.59 330.86 319.53 305.49 302.74 306.8 296.67 326.19"/><polygon points="374.75 135.17 347.32 105.57 322.49 75.02 299.59 41.05 299.27 40.59 298.93 40.15 273.24 7.34 267.49 0 258.29 1.58 211.63 9.58 211.23 9.65 210.84 9.74 164.69 20.14 121.49 28.05 77.6 33.13 67.33 34.31 64.4 44.22 59.4 61.15 76.29 59.14 79.39 48.65 123.79 43.52 167.82 35.46 214.27 24.98 260.94 16.98 286.63 49.79 309.92 84.33 335.51 115.83 363.29 145.79 345.96 191.41 330.96 237.79 330.04 239.76 347.38 237.82 360.71 196.59 377.9 151.35 381.34 142.28 374.75 135.17"/><polygon points="191.65 62.96 186.83 52.25 176.47 52.5 165.62 87.23 144.09 124.36 176.69 150.76 198.45 127.82 205.71 120.17 201.29 84.38 191.65 62.96"/><polygon points="117.39 321.22 136.78 309.4 146.48 303.49 177.19 304.16 190.43 307.08 208.08 310.97 241.14 311.49 232.52 300.54 221.04 285.94 219.22 249.76 204.46 221.91 177.21 188.86 173.06 187.78 168.47 206.01 161.59 233.35 131.45 251.72 122.51 264.65 113.57 277.57 105.23 289.61 99.67 297.63 91.83 304.82 87.91 308.41 93.81 310.97 117.39 321.22"/><polygon points="103.92 158.04 70.03 166.94 73.09 174.34 76.16 181.74 108.59 192 119.97 193.38 142.74 196.14 150.27 184.07 161.56 165.98 148.07 153.56 134.57 141.14 103.92 158.04"/><polygon points="187.69 166.57 215.13 186.6 224.06 184.48 241.94 180.22 274.06 172.38 275.01 164.61 275.97 156.85 241.65 156.41 210.93 139.47 187.69 166.57"/></g></svg>