<?xml version="1.0" encoding="UTF-8"?><svg id="Calque_2" xmlns="http://www.w3.org/2000/svg" viewBox="0 0 416.31 369.89"><g id="Calque_1-2"><polygon points="296.67 326.19 252.56 329.77 209.92 331.46 167.95 345.47 124.1 352.94 96.22 318.06 66.15 286.35 56.31 273.24 42.49 266.16 32.62 261.47 30.22 260.32 29.45 257.77 25.4 244.24 23.88 239.17 28.72 237.03 30.87 236.08 17.58 213.69 25.4 196.17 35.54 173.46 56.01 135.5 66.66 91.78 50.1 93.76 41.3 129.85 21.79 166.04 21.51 166.56 21.27 167.09 3.31 207.32 0 214.71 4.14 221.67 26.81 259.84 27.25 260.57 27.75 261.25 53.66 295.74 54.19 296.45 54.81 297.1 84.42 328.34 111.89 362.7 117.64 369.89 126.72 368.34 170.57 360.88 171.76 360.67 172.9 360.29 212.75 346.99 253.18 345.39 253.51 345.38 253.83 345.35 297.94 341.77 308.44 340.91 311.59 330.86 319.53 305.49 302.74 306.8 296.67 326.19"/><polygon points="79.39 48.65 123.79 43.52 167.82 35.46 214.27 24.98 260.94 16.98 286.63 49.79 309.92 84.33 335.51 115.83 363.29 145.79 345.96 191.41 330.96 237.79 330.04 239.76 347.38 237.82 360.71 196.59 377.9 151.35 381.34 142.28 374.75 135.17 347.32 105.57 322.49 75.02 299.59 41.05 299.27 40.59 298.93 40.15 273.24 7.34 267.49 0 258.29 1.58 211.63 9.58 211.23 9.65 210.84 9.74 164.69 20.14 121.49 28.05 77.6 33.13 67.33 34.31 64.4 44.22 59.4 61.15 76.29 59.14 79.39 48.65"/><polygon points="362.95 244.53 344.72 246.57 286.84 253.04 288.31 266.24 338.09 260.68 338.09 260.67 356.32 258.64 367.98 257.33 401.74 253.56 400.26 240.36 374.42 243.25 362.95 244.53"/><polygon points="41.77 85.69 52.54 84.41 69.43 82.39 113.98 77.08 112.41 63.9 73.52 68.53 56.63 70.54 45.82 71.83 7.14 76.44 8.71 89.63 41.77 85.69"/><polygon points="415.28 271.62 374.28 274.81 362.81 275.7 345.52 277.04 272.61 282.71 273.64 295.95 341.25 290.69 358.03 289.39 368.77 288.56 416.31 284.86 415.28 271.62"/><polygon points="262.39 79.01 240.4 59.51 224.85 65.16 212.66 69.59 212.05 71.77 204.37 98.85 222.64 122.06 252.03 119.11 265.37 92.02 263.03 81.78 262.39 79.01"/><polygon points="202.5 180.93 203.96 179.64 203.9 175.99 204.86 168.61 204.63 165.76 204.6 165.02 204.58 164.25 199.45 175 194.64 188.84 192.87 194.21 191.69 197.82 191.28 199.53 190.37 203.38 190.54 203.86 197.67 203.77 217.91 211.07 221.93 214.27 224.8 214.93 227.67 215.59 230.85 223.2 232.61 228.31 233.73 231.57 243.73 248.7 249.58 258.56 255.44 268.42 263.32 284.63 262.98 296.38 254.4 306.94 250.11 312.21 247.84 309.77 243.3 304.89 239.89 301.99 234.59 298.34 227.45 279.24 221.42 269.71 215.39 260.19 213.31 251.47 212.22 246.92 204.49 245.58 200.81 243.35 196.81 242.59 180.77 239.56 161.78 235.44 145.44 230.78 146.01 232.03 147.03 232.53 149.06 233.52 152.25 235.02 155.44 236.51 153.4 243.72 153.04 245 139.8 262.59 135.59 266.65 127.18 274.75 127.53 278.59 127.71 280.51 119.57 282.94 111.44 285.38 110.33 284.65 107 282.46 104.55 281.27 102.11 280.09 93.14 276.99 84.17 273.9 61.59 269.21 53.37 264.99 48.07 262.28 45.15 260.78 35.2 256.05 31.14 242.52 33.71 241.38 34.11 241.2 44.01 236.83 48.8 233.94 55.59 234.53 65.66 238.32 75.73 242.11 85.84 244.58 95.96 247.04 97.57 246.83 102.43 246.18 103.11 249.13 103.85 248.02 104.4 247.19 111.78 233.58 123.49 215.41 127.41 210.97 127.27 210.59 127.19 210.33 127.06 208.8 126.87 206.5 129.07 202.01 131.27 197.53 139.37 182.4 148.27 164.9 154.45 156.1 155.04 152.52 155.27 151.12 157.57 149.4 157.46 148.21 157.39 147.37 157.04 146.19 156.59 144.7 156.51 144.06 156.27 142.14 146.81 142.82 136.6 143.55 128.75 143.83 128.8 143.71 129.62 142.54 128.76 143.32 128.18 143.84 128.53 143.83 128.75 143.83 122.54 158.98 121.52 161.45 120.3 167.02 117.84 178.18 113.45 187.27 105.88 186.37 98.3 185.47 97.33 180.05 96.36 174.62 95.59 171.53 95.09 169.47 97.77 149.17 101.77 129.45 102.77 125.13 106.7 121.03 110.63 116.93 121.62 112.68 139.79 110.81 162.75 114.58 171.54 113.79 180.74 112.95 185.02 113.39 187.04 113.93 192.07 110.13 196.86 112.75 206.78 124.6 208.71 128.25 212.78 135.38 218.87 146.07 225.71 163.65 227.91 164.85 227.19 164.82 232.36 166.2 243.08 167.05 257.08 163.86 263.72 163.75 270.39 163.65 274.67 161.53 276.82 160.47 279.85 168.77 280.32 170.08 280.34 176.62 280.35 183.15 270.09 188.33 264.94 187.64 253.98 186.54 240.85 189.58 230.02 192.59 221.54 194.94 217.95 192.68 209.24 192.34 207.68 184.36 203.36 182.3 203.16 181.98 202.5 180.93"/></g></svg>