<?xml version="1.0" encoding="UTF-8"?><svg id="Calque_2" xmlns="http://www.w3.org/2000/svg" viewBox="0 0 76.6 114.53"><g id="Calque_1-2"><path d="M76.6,37.54l-9.36-23.36L44.8,1.9c-1.98-.44-3.96-.88-5.94-1.31-1.51.76-3.02,1.51-4.53,2.27-1.2-.95-2.4-1.9-3.6-2.85L13.2,7.58.98,26.78l-.98,27.25c.5,3.48,1,6.95,1.51,10.43.9,1.26,1.81,2.52,2.71,3.78,3.35,2.08,7.72,5.31,11.89,10.14,6.24,7.21,9.12,14.59,10.49,19.14,4.52,5.67,9.03,11.34,13.55,17.01,5.83-11.11,11.65-22.23,17.48-33.34,5.4-6.17,10.8-12.35,16.19-18.52l2.77-25.13ZM35.19,64.5c-1.48-2.14-2.96-4.29-4.44-6.43-2.9-.16-5.81-.31-8.71-.47l-6.89-12.9c1.65-6.36,6.57-11.29,8.22-17.64,4.03.77,4.8.12,8.83.88,3.55-2.02,7.1-4.04,10.65-6.06,4.75,4.72,9.51,9.45,14.26,14.17-1.26,6.66-2.51,13.33-3.77,19.99-6.05,2.82-12.1,5.64-18.15,8.46Z"/></g></svg>