<?xml version="1.0" encoding="UTF-8"?><svg id="Calque_2" xmlns="http://www.w3.org/2000/svg" viewBox="0 0 184.87 44.48"><defs><style>.cls-1{fill:none;stroke:#606060;stroke-miterlimit:10;stroke-width:.25px;}.cls-2{fill:#fff;}</style></defs><g id="Layer_2"><g id="Layer_1-2"><path class="cls-2" d="M134.79,20.81h-1.12v9.96h.94c1.12,0,2.7-.11,3.9-1.28.59-.56,1.36-1.68,1.36-3.66,0-1.66-.51-3.07-1.39-3.9-1.1-1.02-2.54-1.12-3.69-1.12Z"/><path class="cls-2" d="M86.08,38.11l-1.53,6.37h100.32V6.37h-90.83M103.79,34.7h-4.62v-17.83h4.62v17.83ZM125.3,34.7h-4.62l-8.53-10.91v10.91h-4.62v-17.83h4.62l8.53,10.91v-10.91h4.62v17.83ZM142.36,32c-1.42,1.42-3.8,2.7-6.84,2.7h-6.47v-17.83h6.07c1.79,0,4.78.24,7.08,2.46,2.09,2,2.49,4.57,2.49,6.5,0,2.35-.59,4.44-2.33,6.17ZM157.76,20.8h-5.51v2.97h5.21v3.93h-5.21v3.07h5.51v3.93h-10.13v-17.83h10.13v3.93ZM172.22,34.71l-3.8-5.8-4.01,5.8h-5.59l6.98-9.52-5.72-8.31h5.72l2.65,4.62,2.75-4.62h5.69l-5.8,8.31,6.74,9.52h-5.61Z"/><path class="cls-2" d="M81.59,15.94c-.81,0-1.46.68-1.46,1.52s.66,1.52,1.46,1.52,1.46-.68,1.46-1.52-.66-1.52-1.46-1.52ZM81.94,18.58h0s-.52-1-.52-1v.99h-.48v-2.26h.66c.49,0,.73.3.73.64,0,.3-.18.54-.46.59l.6,1.04h-.54Z"/><path class="cls-2" d="M81.56,16.71h-.13v.48h.13c.18,0,.29-.05.29-.22,0-.21-.1-.26-.29-.26Z"/><path class="cls-2" d="M73.53,21.12c-.45-.29-.85-.39-2.2-.39h-.64v3.53h.84c2.39,0,2.71-.9,2.71-1.78,0-.59-.24-1.06-.71-1.36Z"/><path class="cls-2" d="M73.02,15.48c0-.75-.22-1.6-1.95-1.6h-.39v3.2h.36c1.76,0,1.98-.85,1.98-1.6Z"/><path class="cls-2" d="M94.04,6.37l1.57-6.37H0v38.11h86.08M26.96,20.88c0,2.11-.42,3.61-1.36,4.85-1.27,1.67-3.49,2.66-6,2.66s-4.75-.99-6-2.66c-.94-1.24-1.36-2.74-1.36-4.85v-10.9h4.45v10.24c0,1.67.06,2.09.45,2.75.43.78,1.42,1.28,2.46,1.28s1.96-.49,2.48-1.3c.34-.59.44-1,.44-2.73v-10.24h4.44v10.9ZM37.51,28.13h-4.45v-14.14h-4.49v-4.01h13.64v4.01h-4.7v14.14ZM59.48,28.12l-2.17-8.53-4.41,9.88-4.57-9.36-1.63,8.01h-4.5l4.61-18.75,6.09,10.55,5.51-11.71,5.74,19.91h-4.67ZM72.49,28.07h-6.25V10.04h4.75c2.09,0,3.51.35,4.49,1.13,1.08.88,1.74,2.38,1.74,3.92,0,.98-.28,1.99-.76,2.7-.12.17-.23.32-.37.46.52.21.89.47,1.31.89.85.85,1.38,2.22,1.38,3.57,0,3.3-2.41,5.36-6.29,5.36ZM81.59,19.32c-.98,0-1.78-.83-1.78-1.85s.8-1.85,1.78-1.85,1.78.83,1.78,1.85-.8,1.85-1.78,1.85Z"/></g><line class="cls-1" x1="94.1" y1="6.3" x2="85.96" y2="38.09"/></g></svg>