<?xml version="1.0" encoding="UTF-8"?><svg id="Calque_2" xmlns="http://www.w3.org/2000/svg" viewBox="0 0 313.41 203.26"><defs><style>.cls-1{fill:#fff;}</style></defs><g id="Calque_1-2"><path class="cls-1" d="M91.2,114.5c6.23,2.1,12.21.03,17.55-2.77,6.06-3.18,14.43-10.34,18.89-15.34l10.7-11.98c15.2-17.01,27.82-35.65,40.58-55,.83,1.23.19,2.5.1,4.05l.02,91.59c-20.42,11.93-44.68,20.81-68.42,19.47-11.72-1.22-21.77-4.03-30.11-12.73-15.87-16.57-8.54-43.24,2.15-60.79,7.26-11.91,14.85-20.98,25.2-30.32l4.08-3.68c12.94-11.68,32.31-23.03,48.77-29.28C171.85,3.5,183.38.65,195.36.08c12.45-.6,26.78,2.28,36.35,10.33,12.05,10.15,13.94,25.1,10.52,39.85-1.97,8.47-5.78,15.79-9.84,23.56-9.02,14.66-20.41,27.53-34.46,38.33l-.05-29.2c9.55-9.69,17.59-20.66,23.08-33.16,1.44-4.67,2.7-9.05,3.09-13.79.93-10.22-4.44-19.28-14.11-22.68-5.45-1.92-11.29-2.84-17-2.75-18.53.29-39.93,9.91-55.55,19.65-10.61,6.61-19.95,14.19-28.76,22.99-12.73,12.72-28.18,34.14-24.41,53.02.71,3.57,3.44,7.06,6.99,8.26Z"/><path class="cls-1" d="M117.05,161.59l14.77-.14.08,40.57-10.5.06v-7.42s-14.11-.07-14.11-.07c-2.18-.01-3.75,3.86-7.87,5.84-6.11,2.95-12.96,3.37-19.47,1.12-14.03-4.84-15.56-23.56-8.52-33.64,7.73-11.07,24.5-8.49,29.43-1.57,2.16,3.03,3.94,6.14,3.94,10.03l-10.35-.05c-.71-1.7-1.34-4-2.67-5.04-3.15-2.45-8.46-1.95-10.97,1.19-2.03,2.55-3.32,6.46-2.93,9.52.43,3.41.9,6.82,3.19,9.2,2.8,2.9,7.35,3.68,11.35,2.36,1.82-.6,5.09-2.39,6.23-4.12l18.39-27.84ZM121.09,186.79l-.02-15.6-9.76,15.72,9.78-.12Z"/><path class="cls-1" d="M313.41,202.58l-10.38.14-9.82-16.02c-1.67-2.73-3.17-5.22-4.89-7.71l-.02,23.72-10.31-.09v-41.08s10.91-.12,10.91-.12l13.88,22.77.31-22.62,10.31-.16v41.18Z"/><path class="cls-1" d="M269.83,197.26c-8.15,7.66-22.11,8.21-30.15.37-6.65-6.48-7.52-16.62-4.12-25.26,2.91-7.39,10.43-11.62,18.3-11.52,5.95.08,11.86,1.45,15.77,5.82,7.36,8.23,7.39,21.7.19,30.58ZM263.87,187.41c1.6-6.15.82-15.76-6.97-17.38-3.44-.71-7.2-.27-9.68,2.52-3.75,4.22-3.94,11.8-1.3,16.96,1.9,3.72,6.23,5.08,10.13,4.52,3.34-.48,6.81-2.76,7.82-6.63Z"/><path class="cls-1" d="M31.09,167.78c4.43,4.54,4.99,10.98,4.64,17.03-.5,8.78-6.68,16.35-15.91,17.51-6.48.81-13.07.35-19.81.34v-41.2c9.82.25,24.56-1.74,31.08,6.31ZM25.03,177.88c-.67-3.44-3.23-7.3-7.04-7.48l-7.48-.36.02,23.94,7.46-.46c6.17-.38,8.34-8.92,7.03-15.64Z"/><path class="cls-1" d="M204.61,171.45l-.12,30.98-8.72.43c-.69.03-1.94-1.13-1.93-1.84l.13-14.87-14.77-.05-.2,16.61-10.05-.08-.11-27.84-.1-13.29,10.23-.11.14,15.73c2.88.18,4.98.22,7.61.17l7.13-.13.13-11.02.07-4.66h10.44s.11,9.97.11,9.97Z"/><path class="cls-1" d="M64.82,177.64l.14,8.44-15.38.07-.03,7.52,17.14.07c.19,3.13.22,5.62.02,9.02l-27.79-.13-.02-41.2h27.85s.03,8.72.03,8.72l-12.57-.05h-4.71s.03,7.56.03,7.56l15.28-.02Z"/><path class="cls-1" d="M155.52,202.53c-3.62.25-6.8.25-10.34.09l-.05-32.46-10.61-.08c-.23-3.2-.25-5.43,0-8.62l31.23-.06.14,8.73-10.38.06v32.33Z"/><polygon class="cls-1" points="234.3 193.68 234.43 202.67 207.7 202.74 207.66 161.68 218.25 161.45 218.24 193.75 234.3 193.68"/></g></svg>