<?xml version="1.0" encoding="UTF-8"?><svg id="Calque_2" xmlns="http://www.w3.org/2000/svg" viewBox="0 0 170.99 159.46"><defs><style>.cls-1{fill:#fff;}</style></defs><g id="Calque_1-2"><polygon class="cls-1" points="94.83 114.69 74.56 114.64 58.15 91.74 46.84 114.67 21.86 114.38 57.83 42.19 82.48 42.18 71.19 19.67 85.98 0 122.68 71.98 107.45 91.73 82.5 42.24 58.13 91.72 134.15 92.12 149.63 114.67 94.83 114.69"/><polygon class="cls-1" points="64.97 159.41 55.81 159.38 61.27 137.1 50.08 159.44 44.95 159.38 57.73 133.63 66.73 133.69 61.36 156.1 72.54 133.72 77.65 133.74 64.97 159.41"/><polygon class="cls-1" points="96.18 147.96 88.24 147.97 84.51 155.45 93.14 155.55 91.31 159.46 77.09 159.43 89.94 133.65 103.83 133.71 101.96 137.55 93.4 137.55 90.16 144.07 97.96 144.17 96.18 147.96"/><path class="cls-1" d="M109.86,159.33c-1.74.14-3.33.14-5.43.05l10.86-21.79-5.71-.12,1.96-3.86,16.75.04-1.87,3.88-5.69.04-10.87,21.75Z"/><polygon class="cls-1" points="130.07 159.43 124.71 159.31 137.5 133.65 142.87 133.71 130.07 159.43"/><path class="cls-1" d="M32.56,159.39c-1.93.09-3.66.09-5.39-.08l12.82-25.66,5.37.06-12.8,25.67Z"/><polygon class="cls-1" points="5.4 159.33 0 159.41 12.83 133.72 18.16 133.73 5.4 159.33"/><path class="cls-1" d="M17.52,159.39l-5.11.05.09-12.49c.32-.8.98-2.5,1.62-3.15l10.21-10.16,5.85.14-12.82,12.55.15,13.05Z"/><path class="cls-1" d="M158.34,159.4l-5.09.06.14-12.49c.01-.95,1.12-2.79,1.85-3.51l9.91-9.81,5.85.13-12.86,12.6.2,13.02Z"/><polygon class="cls-1" points="146.16 159.38 140.82 159.36 153.69 133.61 158.96 133.74 146.16 159.38"/></g></svg>