<?xml version="1.0" encoding="UTF-8"?><svg id="Calque_2" xmlns="http://www.w3.org/2000/svg" viewBox="0 0 215.63 101.49"><defs><style>.cls-1{fill:#fff;}</style></defs><g id="Calque_1-2"><path class="cls-1" d="M101.54,69.91l6.11.92-.61,27.11-17.35-19.21-.1,15.46,3.79,2.71-13.27.27-6.07-18.79-4.18,8.98c1.45,1.63,4.54,2.56,7.37,2.94-.51.62-2.38,2.39-3.55,2.52-1.36.16-3.96-.95-5.89-1.91-4.26,4.6-9.81,6.88-16.54,6.18l-2.35-.25c-.41-.04-.38-.45-.12-.75.24-.27,1.31-1.37,1.56-1.71l.29-23.88,7.57-.44c-.86.66-3.02,2.36-3.02,3.1l.15,20.59c4.24.96,7.42-1.41,9.32-4.31l-3.4-2.13,6.72-1.99,6.24-15.99,11.76,26.77,1.32-26.9,17.35,19.86c.2-1.09,1.64-19.93-3.1-19.16Z"/><path class="cls-1" d="M158.43,91.34c1.58,2.51,4.67,4.22,7.43,3.77,1.91-.31,3.92-2.74,6.18-5.25.46,1.75-1.03,5.29-3.12,6.27-6,2.79-11.85.99-15.63-4.66-3.65,5.49-9.35,7.44-14.72,5.64-5.47-1.83-8.44-7.12-8.49-13.26-.04-5.81,2.8-11.16,7.58-13.18,5.64-2.38,11.64-.92,15.76,4.32,4.82-7.1,15.48-6.09,17.97-2.62.64.9.49,3.53.28,4.52-2-2.25-3.53-4.14-5.2-4.74-2.27-.82-6.76,0-7.88,1.73-3.58,5.49-3.73,11.79-.17,17.46ZM148.81,76.29c-.93-2-3.54-3.96-5.21-4.38-1.84-.46-5.8.54-6.72,2.16-3.55,6.21-3.02,13.45,1.3,18.96,1.19,1.52,4.58,2.71,6.33,2.51,6.53-.76,7.42-12.52,4.29-19.24Z"/><path class="cls-1" d="M158.36,44.04c-14.94,21.54-37.62,14.13-57.36,5.16-14.27-6.49-25.98-12.92-41.82-11.7,10.11-5,28.51,2.9,39.1,7.31,22.06,9.19,39.7,15.66,60.08-.76Z"/><path class="cls-1" d="M36.03,96.87h-10.64c1.48-1.36,2.98-3.17,2.98-4.65v-22.53c0-1.39-1.32-3.09-2.82-4.65,2.35-.81,5.83.82,7.51,3.53,2.57-4.82,8.87-9.25,13.44-4.95,3.94,3.7,3.43,9.86.93,14.55-2.1,3.94-6.71,7.93-12.24,6.84,4.12-2.06,8.21-4.29,9.38-7.52,1.45-4.01,1.11-10.13-3.41-11.7-4.35-1.52-8.12,4.79-8.12,8.98v18.22c-.02.72,1.39,2.29,2.99,3.88Z"/><path class="cls-1" d="M117.44,93.25c1.43,1.62,6.06,2.61,7.56,1.1,1.24-1.25,2.63-3.29,4.18-5.41.2,1.43-.3,5.22-1.52,6.22-3.41,2.78-9.26,2.85-12.69.64-3.79-2.45-5.79-7.08-5.9-11.91-.12-5.32,2.08-10.57,6.22-12.78,4.43-2.36,10.25-1.82,14.13,1.52l-.39,6.22c-1.74-3.14-3.41-6.09-5.43-6.71-2.79-.86-6.85.2-8.11,2.59-3.19,6.04-2.86,13.07,1.95,18.52Z"/><path class="cls-1" d="M189.12,97.01l-10.86-.02c1.2-1.24,2.89-2.81,2.88-3.98l-.13-20.07c-2.6-.52-5.44.28-7.53,1.5-.42-.75.26-4.23,1.46-4.23l17.33-.11-.06,5.9-1.97-2.74c-.58-.81-3.91-.34-4.48.49l-.3,19.35c-.02,1.08,1.34,2.23,3.65,3.91Z"/><path class="cls-1" d="M104.25,19c.05,7.05-.04,12.4.89,20.86l-6.29-3.95L102.05.43l5.36-.43-2.6,1.21c-.76.35-.68,2.3-.67,3.61l.1,14.17Z"/><rect class="cls-1" y="78.86" width="21.35" height="5.03"/><polygon class="cls-1" points="21.14 92.72 1.3 92.76 .18 87.82 21.32 87.78 21.14 92.72"/><polygon class="cls-1" points="21.15 101.42 2.65 101.49 1.28 96.74 21.24 96.75 21.15 101.42"/><rect class="cls-1" x="196.69" y="78.86" width="18.94" height="5"/><path class="cls-1" d="M214.5,92.83l-16.86-.19c-1.11-.2-1.16-4.54-.08-4.73l17.77-.15-.83,5.06Z"/><rect class="cls-1" x="8.36" y="61.11" width="4.67" height="21.26" transform="translate(-61.05 82.4) rotate(-89.97)"/><path class="cls-1" d="M212.82,101.42h-15.4c-.18-.74-.22-3.67-.04-4.63l16.23-.03c.26.72-.2,3.56-.79,4.66Z"/><rect class="cls-1" x="8.59" y="52.1" width="4.72" height="19.67" transform="translate(-50.98 72.85) rotate(-89.97)"/><rect class="cls-1" x="196.69" y="69.4" width="18.83" height="4.67"/><rect class="cls-1" x="196.31" y="59.58" width="18.17" height="4.71"/><path class="cls-1" d="M171.59,83.5c-1.08,1.05-3.37,2.51-4.34,2.28l-9.28-2.27c4.84-3.34,9.03-.9,13.62,0Z"/><circle class="cls-1" cx="159.15" cy="64.5" r="2.02"/><circle class="cls-1" cx="166.24" cy="64.5" r="2.02"/></g></svg>