<?xml version="1.0" encoding="UTF-8"?><svg id="Calque_2" xmlns="http://www.w3.org/2000/svg" viewBox="0 0 315.91 305.73"><g id="Calque_1-2"><polygon points="41.2 79.27 40.58 81.44 41.11 79.28 41.2 79.27"/><polygon points="315.91 117.87 313.06 125.38 298.81 162.87 274.45 230.98 274.59 230.97 258.12 274.09 255.52 282.42 246.82 283.13 210.27 286.1 210.01 286.12 209.74 286.13 176.25 287.46 155.53 294.73 154.59 295.04 142.87 295.85 158.22 280.17 173.9 274.59 209.23 273.2 245.77 270.23 260.69 232.05 260.83 232.04 286.6 158.57 300.95 120.78 277.94 95.96 256.74 69.87 237.45 41.25 216.16 14.07 177.51 20.7 139.02 29.38 102.55 36.05 65.77 40.31 54.28 80.8 54.05 80.83 46.4 112.26 29.44 143.7 14.56 177.03 33.12 211.32 29.45 225.79 22.57 215.87 22.21 215.26 3.43 183.64 0 177.88 2.74 171.75 17.62 138.42 17.82 137.98 18.05 137.56 34.21 107.58 40.33 82.46 40.58 81.44 41.2 79.27 53.35 36.64 55.78 28.43 64.28 27.45 100.64 23.24 136.43 16.69 174.66 8.07 174.99 8 175.32 7.94 213.97 1.31 221.59 0 226.36 6.09 247.64 33.27 247.92 33.63 248.18 34.01 267.15 62.15 287.72 87.46 310.45 111.98 315.91 117.87"/><polygon points="40.58 81.44 40.33 82.46 40.29 82.47 40.58 81.44"/><polygon points="146.52 96.44 115.64 111.39 147.33 122.57 173.64 143.47 201.89 158.95 195.93 130.97 171.97 114.2 146.52 96.44"/><path d="M108.82,123.4l-22.09,30.41-.67,6.2-7.89,21.86-6.59,1.87-15.92,25.91,25.36,20.53,31.28,15.44,28.43,16.36,18.99-25.32-6.32-8.58,13.09-20.67,11.29,2.31,21.66-35.08-32.09-19.47-31.7-14.66-26.83-17.11ZM108.59,224.91l-8.36-15.18,20.14-9.88-17.88-9.12,34.77-24.52,11.37,15.42-21.25,8.87,16.14,9-34.92,25.4Z"/><polygon points="43.2 227.14 39 239.23 36.19 268.62 65.1 289.75 97.15 305.73 126.08 292.23 130.15 280.89 100.97 264.22 73.25 242.95 43.2 227.14"/><polygon points="175.66 60.66 200.38 71.99 221.71 88.77 208.46 114.96 183.32 100.02 157.88 84.69 175.66 60.66"/></g></svg>