<?xml version="1.0" encoding="UTF-8"?><svg id="Calque_2" xmlns="http://www.w3.org/2000/svg" viewBox="0 0 363.77 351.22"><g id="Calque_1-2"><path d="M355.83,128.35l-26.04-28.1-23.58-29.01-21.76-32.25-.29-.44-.33-.42-24.39-31.15-5.46-6.97-8.73,1.5-44.31,7.6-.38.06-.37.09-43.83,9.87-41.02,7.52-41.66,4.81-9.75,1.13-2.77,9.41-5.27,17.83,16-1.81,3.5-11.83,42.17-4.87,41.79-7.66,44.12-9.94,44.31-7.6,24.39,31.15,22.12,32.79,24.29,29.9,26.39,28.46-16.46,43.31-13.54,41.87,16.12-1.61,11.43-35.35,16.32-42.96,3.28-8.61-6.27-6.75ZM271.03,181.05l-2.24-24.53,4.53-27.22-28.12-1.04-24.77,7.16-26.49,4.47,2.97-27.11-5.99-24.74,2.36-29.96-28.91,5.31-24.25,2.06-24.63,3.54-2.11,25.76,11.4,23.99.29,28.13-27.44,6.99-25.47-1.26-24.96-1.44.7,24.14,7.13,23.96-3.15,26.24,26.42-1.36,25.3-1.24,24.02-3.58,7.14,23.04,4.58,24.99-3.47,24.08,23.76,4.39,23.6-10.99,25.28,2.41.36-25.86-2.44-25.04.38-20.22,20.92.93,23.34-14.94,22.29-.31-2.33-20.73ZM286.74,293.56l-5.05,16.16-41.88,3.4-40.5,1.6-39.85,13.3-41.63,7.09-26.48-33.11-28.54-30.11-24.6-32.75-21.54-36.24,17.07-38.2,4.44-8.23-.15-5.05-.29-9.98,8.29.47,7.14-13.25,8.8-36.14-15.7,1.78-7.06,29-18.53,34.36-.26.49-.22.5L3.13,196.86l-3.13,7.01,3.92,6.61,21.54,36.24.4.69.48.64,24.6,32.75.52.69.58.62,28.12,29.65,26.08,32.62,5.47,6.83,8.62-1.47,41.64-7.08,1.12-.19,1.08-.37,37.85-12.63,38.39-1.51h.31s.31-.03.31-.03l41.88-3.4,9.97-.81,2.99-9.55,6.77-21.65-15.89,1.05Z"/><path d="M271.03,181.05l-2.24-24.53,4.53-27.22-28.12-1.04-24.77,7.16-26.49,4.47,2.97-27.11-5.99-24.74,2.36-29.96-28.91,5.31-24.25,2.06-24.63,3.54-2.11,25.76,11.4,23.99.29,28.13-27.44,6.99-25.47-1.26-24.96-1.44.7,24.14,7.13,23.96-3.15,26.24,26.42-1.36,25.3-1.24,24.02-3.58,7.14,23.04,4.58,24.99-3.47,24.08,23.76,4.39,23.6-10.99,25.28,2.41.36-25.86-2.44-25.04.38-20.22,20.92.93,23.34-14.94,22.29-.31-2.33-20.73ZM271.03,181.05l-2.24-24.53,4.53-27.22-28.12-1.04-24.77,7.16-26.49,4.47,2.97-27.11-5.99-24.74,2.36-29.96-28.91,5.31-24.25,2.06-24.63,3.54-2.11,25.76,11.4,23.99.29,28.13-27.44,6.99-25.47-1.26-24.96-1.44.7,24.14,7.13,23.96-3.15,26.24,26.42-1.36,25.3-1.24,24.02-3.58,7.14,23.04,4.58,24.99-3.47,24.08,23.76,4.39,23.6-10.99,25.28,2.41.36-25.86-2.44-25.04.38-20.22,20.92.93,23.34-14.94,22.29-.31-2.33-20.73ZM355.83,128.35l-26.04-28.1-23.58-29.01-21.76-32.25-.29-.44-.33-.42-24.39-31.15-5.46-6.97-8.73,1.5-44.31,7.6-.38.06-.37.09-43.83,9.87-41.02,7.52-41.66,4.81-9.75,1.13-2.77,9.41-5.27,17.83,16-1.81,3.5-11.83,42.17-4.87,41.79-7.66,44.12-9.94,44.31-7.6,24.39,31.15,22.12,32.79,24.29,29.9,26.39,28.46-16.46,43.31-13.54,41.87,16.12-1.61,11.43-35.35,16.32-42.96,3.28-8.61-6.27-6.75ZM327.38,232.74l12.68-1.26h0s-12.68,1.26-12.68,1.26ZM355.83,128.35l-26.04-28.1-23.58-29.01-21.76-32.25-.29-.44-.33-.42-24.39-31.15-5.46-6.97-8.73,1.5-44.31,7.6-.38.06-.37.09-43.83,9.87-41.02,7.52-41.66,4.81-9.75,1.13-2.77,9.41-5.27,17.83,16-1.81,3.5-11.83,42.17-4.87,41.79-7.66,44.12-9.94,44.31-7.6,24.39,31.15,22.12,32.79,24.29,29.9,26.39,28.46-16.46,43.31-13.54,41.87,16.12-1.61,11.43-35.35,16.32-42.96,3.28-8.61-6.27-6.75Z"/><polygon points="273.36 201.79 251.06 202.1 227.73 217.03 206.81 216.1 206.43 236.32 208.87 261.37 208.52 287.23 183.23 284.82 159.63 295.81 135.87 291.42 139.34 267.34 134.76 242.35 127.62 219.31 103.59 222.89 78.3 224.13 51.88 225.49 55.03 199.25 47.9 175.3 47.2 151.16 72.16 152.6 97.63 153.87 125.07 146.87 124.79 118.75 113.38 94.76 115.49 69 140.12 65.46 164.38 63.4 193.28 58.09 190.92 88.05 196.92 112.79 193.95 139.89 220.44 135.42 245.21 128.26 273.32 129.3 268.79 156.52 271.03 181.05 273.36 201.79"/><path d="M61.15,42l2.77-9.41,9.75-1.13,41.66-4.81,41.02-7.52,43.83-9.87.37-.09.38-.06,44.31-7.6,8.73-1.5,5.46,6.97,24.39,31.15.33.42.29.44,21.76,32.25,23.58,29.01,26.04,28.1,6.27,6.75-3.28,8.61-16.32,42.96-11.43,35.35-16.12,1.61,13.54-41.87,16.46-43.31-26.39-28.46-24.29-29.9-22.12-32.79-24.39-31.15-44.31,7.6-44.12,9.94-41.79,7.66-42.17,4.87-3.5,11.83-16,1.81,5.27-17.83ZM7.44,88.34l-1.07-12.54,33.96-3.85,12.38-1.4,16-1.81,12.36-1.4,14.25-1.62,1.07,12.54-19.68,2.24-11.85,1.34-15.99,1.81-12.13,1.38-29.3,3.31ZM295.86,314.16l-2.99,9.55-9.97.81-41.88,3.4-.31.02h-.31s-38.39,1.52-38.39,1.52l-37.85,12.63-1.08.37-1.12.19-41.64,7.08-8.62,1.47-5.47-6.83-26.08-32.62-28.12-29.65-.58-.62-.52-.69-24.6-32.75-.48-.64-.4-.69L3.92,210.49l-3.92-6.61,3.13-7.01,17.07-38.2.22-.5.26-.49,18.53-34.36,7.06-29,15.7-1.78-8.8,36.14-9.6,16.24-8.29-.47.29,9.98.15,5.05-1.98,5.24-17.07,38.2,21.54,36.24,24.6,32.75,28.54,30.11,26.48,33.11,41.63-7.09,39.85-13.3,40.5-1.6,41.88-3.4,5.05-16.16,15.89-1.05-6.77,21.65ZM316.83,268.61l6.52-.42,38.57-2.56.63,12.59-44.37,2.93-6.13.41-6.13.4-15.87,1.05-49.61,3.29-.62-12.59,54.26-3.6,16.23-1.08,6.52-.44ZM303.94,247.73l-36.38,3.63-.93-12.55,32.41-3.24,11.14-1.11,17.19-1.72,12.68-1.27,22.78-2.27.94,12.56-42.63,4.25-17.2,1.72Z"/><polygon points="363.77 241.76 321.14 246.01 303.94 247.73 267.56 251.36 266.63 238.81 299.04 235.57 310.18 234.45 327.38 232.74 340.05 231.47 340.05 231.46 362.83 229.19 363.77 241.76"/><polygon points="96.38 78.26 76.7 80.5 64.85 81.84 48.86 83.65 36.74 85.02 7.44 88.34 6.37 75.8 40.33 71.95 52.71 70.55 68.71 68.74 81.07 67.34 95.32 65.72 96.38 78.26"/><polygon points="362.55 278.22 318.18 281.15 312.05 281.56 305.92 281.96 290.05 283.02 240.44 286.31 239.82 273.72 294.08 270.12 310.31 269.05 316.83 268.61 323.35 268.19 361.92 265.63 362.55 278.22"/></g></svg>