<?xml version="1.0" encoding="UTF-8"?><svg id="Calque_2" xmlns="http://www.w3.org/2000/svg" viewBox="0 0 357.81 331.39"><g id="Calque_1-2"><polygon points="325.05 92.45 305.01 67.79 286.33 40.08 255.02 0 201.98 9.1 162.77 17.9 127.6 24.35 75.51 30.37 60.41 81.51 58.66 88.68 72.19 87.95 72.74 85.72 85.54 42.3 129.52 37.21 165.37 30.64 203.6 22.03 249.57 14.12 275.07 46.68 294.52 75.48 315.23 100.98 342.79 130.7 326 174.9 313.45 213.7 297.08 248.54 283 293.5 238.77 297.1 204.8 298.45 204.59 298.46 170.53 309.83 126.68 317.29 108.29 294.29 96.22 300.01 121.31 331.39 173.59 322.49 206.95 311.38 238.8 310.12 292.79 305.75 309.18 253.36 325.53 218.57 338.26 179.21 357.81 127.78 325.05 92.45"/><polygon points="23.59 194.27 3.57 221.68 0 230.11 35.28 254.46 66.31 283.61 69.85 284.95 77.02 286.54 95.41 258.9 58.19 228.51 23.59 194.27"/><path d="M67.98,144.95l-37.09,38.38,40.24,30.45,35.31,36.8,37.81-42.24-36.87-35.56-39.4-27.83ZM77.82,199.01l-7.84,3.95-6.83-7.05-4.79-8.44,1.11-1.35,10.2.82,9.88,2.96-1.72,9.12ZM102.06,223.72l-9.47-2.56-6.46-5.64-1-9.73,10.1-.59,4.62,8.32,6.31,7.24-4.09,2.95ZM104.24,191.52l-6.18,8.27-12.06.57-1.5-11.92,11.81-3.4,9.13-5.02,2.19,2-3.39,9.51Z"/><polygon points="200.08 68.2 186.59 59.38 185.18 59.68 182.14 59.02 140.44 99.35 111.57 111.64 82.03 125.32 82.28 127.1 114.27 164.23 155.92 190.23 159.93 194.4 174.48 163.06 175.04 130.15 213.72 86.91 214.22 81.18 200.08 68.2"/><polygon points="273.06 177.12 272.03 158.59 270.78 138.85 247.55 142.54 225.38 146.72 202.25 148.11 204.13 167.26 209.88 185.2 218.74 206.19 238.66 215.67 245.99 250.26 220.22 251.74 221.66 261.67 250.76 256.52 280.07 253.84 278.49 247.42 255.04 248.15 249.68 213.69 269.04 199.72 273.06 177.12"/></g></svg>