<?xml version="1.0" encoding="UTF-8"?><svg id="Calque_2" xmlns="http://www.w3.org/2000/svg" viewBox="0 0 176.77 176.77"><defs><style>.cls-1{fill:none;stroke:#fff;stroke-miterlimit:10;stroke-width:3px;}.cls-2{fill:#fff;}</style></defs><g id="Calque_1-2"><path class="cls-2" d="M123,97.17c-1.59-1.59-4.18-1.59-5.77,0l-24.74,24.74V44.99c0-2.25-1.82-4.08-4.08-4.08s-4.08,1.82-4.08,4.08v76.91l-24.78-24.78s0,0,0,0c-1.59-1.59-4.18-1.59-5.77,0-.77.76-1.2,1.8-1.2,2.88,0,1.09.43,2.13,1.2,2.9l31.75,31.75s.09.07.14.11c.11.1.23.2.36.29.07.05.14.11.22.16.19.12.39.23.6.32,0,0,.01,0,.02,0,.04.02.08.02.11.04.19.07.39.13.58.17.07.01.13.02.2.03.18.03.36.05.54.05.06,0,.12,0,.19,0,.23,0,.45-.02.68-.06.01,0,.02,0,.04,0,.22-.04.44-.11.66-.19.09-.03.17-.07.25-.11.13-.06.25-.12.37-.2.09-.06.19-.11.28-.18.11-.08.21-.16.31-.25.08-.07.16-.12.23-.19.02-.02.04-.05.06-.07l31.64-31.64c1.59-1.59,1.59-4.18,0-5.77Z"/><circle class="cls-1" cx="88.38" cy="88.38" r="86.88"/></g></svg>