<?xml version="1.0" encoding="UTF-8"?><svg id="Calque_2" xmlns="http://www.w3.org/2000/svg" viewBox="0 0 382.57 369.89"><g id="Calque_1-2"><path d="M194.66,291.31l-26.84-5.84,26.84,5.85,9.42,1.67-9.42-1.68ZM32.13,238.19l-14.55-24.5,7.82-17.52,8.9-19.93,1.24-2.78,20.47-37.96,10.65-43.72-16.56,1.98-8.8,36.09-19.51,36.19-.28.52-.24.53L3.31,207.32l-3.31,7.39,4.14,6.96,22.67,38.17.44.73.5.68,25.91,34.49.53.71.62.65,29.61,31.24,27.47,34.36,5.75,7.19,9.08-1.55,43.85-7.46,1.19-.21,1.14-.38,39.85-13.3,40.43-1.6h.33s.32-.04.32-.04l44.11-3.58,10.5-.86,3.15-10.05,7.94-25.37-16.79,1.31-6.07,19.39-44.11,3.58-42.64,1.69-41.97,14.01-43.85,7.47-27.88-34.88-30.07-31.71-18.64-24.82-15.38-23.34ZM374.75,135.17l-27.43-29.6-24.83-30.55-22.9-33.97-.32-.46-.34-.44-25.69-32.81-5.75-7.34-9.2,1.58-46.66,8-.4.07-.39.09-46.15,10.4-43.2,7.91-43.89,5.08-10.27,1.18-2.93,9.91-5,16.93,16.89-2.01,3.1-10.49,44.4-5.13,44.03-8.06,46.45-10.48,46.67-8,25.69,32.81,23.29,34.54,25.59,31.5,27.78,29.96-17.33,45.62-15,46.38-.92,1.97,17.34-1.94,13.33-41.23,17.19-45.24,3.44-9.07-6.59-7.11ZM112.41,63.9l1.57,13.18h.01l-1.58-13.18Z"/><polygon points="113.99 77.08 113.98 77.08 112.41 63.9 113.99 77.08"/><path d="M343.78,247.27l11.47-1.28,25.84-2.89,1.48,13.2-33.76,3.77-11.66,1.31-18.23,2.03h0s-49.78,5.57-49.78,5.57l-1.47-13.2,57.88-6.47,18.23-2.04ZM8.71,89.63l-1.57-13.19,38.68-4.61,10.81-1.29,16.89-2.01,38.89-4.63,1.58,13.18h-.01l-44.55,5.31-16.89,2.02-10.77,1.28-33.06,3.94ZM47.51,261.53l18.64,24.82,30.07,31.71,27.88,34.88,43.85-7.47,41.97-14.01,42.64-1.69,44.11-3.58,6.07-19.39,16.79-1.31-7.94,25.37-3.15,10.05-10.5.86-44.11,3.58-.32.03h-.33s-40.43,1.61-40.43,1.61l-39.85,13.3-1.14.39-1.19.2-43.85,7.46-9.08,1.55-5.75-7.19-27.47-34.36-29.61-31.24-.62-.65-.53-.71-25.91-34.49-.5-.68-.44-.73-22.67-38.17-4.14-6.96,3.31-7.39,17.96-40.23.24-.53.28-.52,19.51-36.19,8.8-36.09,16.56-1.98-10.65,43.72-20.47,37.96-1.24,2.78-8.9,19.93-7.82,17.52,14.55,24.5,15.38,23.34ZM333.16,295.41l-10.74.83-16.78,1.3-67.61,5.26-1.03-13.24,72.91-5.67,17.29-1.34,11.47-.89,41-3.19,1.03,13.24-47.54,3.7Z"/><polygon points="161.92 298.61 155.73 307.79 159.32 322.01 173.81 319.19 179.3 309.59 161.92 298.61"/><polygon points="128.17 303.12 142.38 299.37 149.27 289.72 131.15 278.51 124.95 288.38 128.17 303.12"/><polygon points="112.07 280.26 117.76 270.67 100.34 259.03 94.61 269.24 97.26 283.83 112.07 280.26"/><polygon points="81.27 260.83 86.89 251.27 69.54 239.4 63.71 249.76 66.81 263.83 81.27 260.83"/><polygon points="273.04 190.27 219.36 163 216.47 162.23 177.92 183.44 138.68 182.57 127.83 202.9 90.08 207.89 82.07 192.05 81.38 173.61 108.85 120.9 142.76 117.13 106.05 89.46 42.68 199.91 211.11 310.01 224.76 307.1 223.51 300.14 220.37 295.31 173.03 260.32 180.4 247.51 232.01 276.86 241.71 276.62 239.95 264.27 187.96 233.73 199.42 218.01 250.39 247.72 258.33 254.11 261.12 243.9 262.49 228.52 207.4 202.91 219.53 185.06 269.79 216.96 277.37 221.58 287.09 217.21 282.68 198.19 273.04 190.27"/><polygon points="170.77 125.33 123.48 140.79 96.5 183.15 97.53 196.07 113.74 194.02 133.73 160.62 141.87 168.39 175.97 174.87 203.03 153.75 211.25 136.99 288.93 178.96 292.31 131.01 204.15 74 170.77 125.33"/><polygon points="382.57 256.3 348.81 260.07 337.15 261.38 318.92 263.41 318.92 263.42 269.14 268.98 267.67 255.78 325.55 249.31 343.78 247.27 355.25 245.99 381.09 243.1 382.57 256.3"/><polygon points="380.7 291.71 333.16 295.41 322.42 296.24 305.64 297.54 238.03 302.8 237 289.56 309.91 283.89 327.2 282.55 338.67 281.66 379.67 278.47 380.7 291.71"/><polygon points="113.98 77.08 69.43 82.39 52.54 84.41 41.77 85.69 8.71 89.63 7.14 76.44 45.82 71.83 56.63 70.54 73.52 68.53 112.41 63.9 113.98 77.08"/><polygon points="113.99 77.08 113.98 77.08 112.41 63.9 113.99 77.08"/><path d="M112.41,63.9l1.57,13.18h.01l-1.58-13.18ZM112.41,63.9l1.57,13.18h.01l-1.58-13.18ZM112.41,63.9l1.57,13.18h.01l-1.58-13.18Z"/></g></svg>