<svg xmlns="http://www.w3.org/2000/svg" xmlns:xlink="http://www.w3.org/1999/xlink" width="151.207" height="99.55" viewBox="0 0 151.207 99.55">
  <defs>
    <clipPath id="clip-path">
      <rect id="Rectangle_117" data-name="Rectangle 117" width="140.46" height="43.148" fill="#fff"/>
    </clipPath>
    <clipPath id="clip-path-2">
      <rect id="Rectangle_118" data-name="Rectangle 118" width="151.207" height="44.9" fill="#fff"/>
    </clipPath>
  </defs>
  <g id="Groupe_344" data-name="Groupe 344" transform="translate(-649.676 -1577.568)">
    <g id="Groupe_191" data-name="Groupe 191" transform="translate(650.49 1577.568)">
      <g id="Groupe_190" data-name="Groupe 190" transform="translate(-0.001 0)" clip-path="url(#clip-path)">
        <path id="Tracé_483" data-name="Tracé 483" d="M301.975,10.427c-.526,2.739-1.961,7.381-1.309,10.384a3.318,3.318,0,0,0,3.081,2.664,94.8,94.8,0,0,0,15.961.518l6.2-.311c.289-.014.607.141.611.379a.678.678,0,0,1-.507.552l-11.868,1.663-13.894,2.455a38.155,38.155,0,0,1-11.088.5c-3.579-.408-11.576-3.161-15.048-3.648l-15.157-2.126-3.572-.3-3.815-.116a10.658,10.658,0,0,1,2.2-.751c1.39-.542,1.2-2.236,3.836-1.79,1.051.178,1.873,1.1,2.879,1.382a67.724,67.724,0,0,0,10.127.289,54.233,54.233,0,0,0,9.276-.606,5.033,5.033,0,0,0,4.125-3.8c.846-3.145,1.432-5.409,4.368-7.347,1.3-.786,2.725-1.407,4.035-2.31.606-.417.7-1.346,1.251-1.814l3.486-2.941L296.9,6.609l3.531-4.886-1.04,6.26L303.977,0Z" transform="translate(-191.351 2.269)" fill="#fff"/>
        <path id="Tracé_484" data-name="Tracé 484" d="M50,43.408l-1.44,2.871c.188.356,1.241-1.12,1.732-.749a.717.717,0,0,1,.22.661c-.225,3.377-.428,6.667-.422,10.038,0,2.091-1.788,2.3-1.463,3.134.3.786,6.9,1.232,8.206,1.362a84.918,84.918,0,0,0,17.711.056.561.561,0,0,1,.542.45.614.614,0,0,1-.454.455c-3.3.629-6.545,1.021-9.924,1.354a84.643,84.643,0,0,0-11.255,1.871,56.056,56.056,0,0,1-10.013,1.561,45.7,45.7,0,0,1-16.213-2.281,54.871,54.871,0,0,0-9.852-2.326L7.86,60.7a10.51,10.51,0,0,0-1.872-.169A14.564,14.564,0,0,1,3.8,60.278c-1.262-.146-2.471.111-3.8-.132.828-.623,1.763-.487,2.541-.916.6-.332.93-1.025,1.523-1.4,1.234-.777,2.73-.173,3.8.424a6.423,6.423,0,0,0,1.363.818c4.427.313,8.773.229,13.208.164,3.5-.051,7.187-.379,9.987-2.516a3.539,3.539,0,0,0,1.246-4.086c-.614-1.832-2.076-3.131-1.044-3.92l5.5-4.207c.422-.323.753-.851,1.11-1.086A17.813,17.813,0,0,0,40.891,42a19.007,19.007,0,0,0,1.855-1.864l1.16-1.3A6.871,6.871,0,0,0,45.6,35.992l3.369,4.764c-.271.645-.771,1.2-.758,1.864.021,1.145,1.923-.323,1.793.789" transform="translate(3.782 -25.649)" fill="#fff"/>
        <path id="Tracé_485" data-name="Tracé 485" d="M102.98,114.78c-2.972,1.384-6.08,1.566-9.2,1.65a15.628,15.628,0,0,1,.055-5.03,7.568,7.568,0,0,0,4.887,3.168c1.418.273,2.768.023,4.253.212" transform="translate(-68.828 -84.14)" fill="#fff"/>
      </g>
    </g>
    <g id="Groupe_206" data-name="Groupe 206" transform="translate(649.676 1579.616)">
      <g id="Groupe_193" data-name="Groupe 193" transform="translate(0 52.602)">
        <g id="Groupe_192" data-name="Groupe 192" clip-path="url(#clip-path-2)">
          <path id="Tracé_486" data-name="Tracé 486" d="M41.664,18.6l5.825-2.581L62.706,0,92.564,36.5c.311.457-30.169,5.916-29.858,6.374" transform="translate(-10.153)" fill="#fff"/>
          <path id="Tracé_487" data-name="Tracé 487" d="M361.6,115.787c-.469-.25-12.2,1.967-12.524,1.554-3.784-4.81-5.947-7.548-10.266-12.314,6.737,1.842,13.171,2.917,19.887,2.286h5.484" transform="translate(-261.002 -80.907)" fill="#fff"/>
          <path id="Tracé_488" data-name="Tracé 488" d="M322.318,56.884a5.707,5.707,0,0,1,.976,0c.256.054.177-.194.795.176,2.766.01,4.6-.2,7.228.05.139-.015.211-.052.242-.05,5.55.444,3.664,7.338,1.3,7.437-3.392.143-3.089-.609-6.434.1a41.468,41.468,0,0,1-19.024-.1,8.556,8.556,0,0,1-3.067-1.055L296.7,54.381l6.25,1.743a45.221,45.221,0,0,0,19.367.76" transform="translate(-228.562 -41.892)" fill="#fff"/>
        </g>
      </g>
      <path id="Tracé_666" data-name="Tracé 666" d="M24.724,83.43,17.35,75.649l-6.538-8.706L4.3,55.982l5.091-11.4,4.893-9.1,2.5-10.264,3.768-12.776,12.939-1.5L44.041,9.016,55.29,6.482,68.815,4.157l7.5,9.58,5.723,8.472,6.094,7.5,8.107,8.746-4.94,13L87.609,62.876l-4.816,10.25L78.649,86.355,65.636,87.412l-9.994.4-.063,0-10.02,3.345-12.9,2.2ZM70.419,0,54.813,2.678,43.276,5.269l-10.347,1.9L17.6,8.937,13.16,23.983,10.685,34.1,6.135,42.543,0,56.231,7.616,69.054,14.408,78.1l7.418,7.828L31.079,97.5l15.379-2.619,9.816-3.271,9.372-.371,15.883-1.285,4.825-15.414,4.809-10.235,3.747-11.582,5.75-15.131L91.022,27.2l-5.9-7.256-5.5-8.154Z" transform="translate(19.958 -0.001)" fill="#fff"/>
    </g>
    <path id="Tracé_489" data-name="Tracé 489" d="M6.058,0,4.6,3.547,0,3.683,3.662,6,2.309,9.783,6.086,7.588l3.879,2.3L8.581,6.017,12.31,3.686,7.549,3.541Z" transform="translate(749.969 1617.282)" fill="#f9fbfc" stroke="#707070" stroke-width="0.5"/>
    <path id="Tracé_490" data-name="Tracé 490" d="M6.058,0,4.6,3.547,0,3.683,3.662,6,2.309,9.783,6.086,7.588l3.879,2.3L8.581,6.017,12.31,3.686,7.549,3.541Z" transform="translate(731.945 1619.324)" fill="#f9fbfc" stroke="#707070" stroke-width="0.5"/>
    <path id="Tracé_491" data-name="Tracé 491" d="M6.058,0,4.6,3.547,0,3.683,3.662,6,2.309,9.783,6.086,7.588l3.879,2.3L8.581,6.017,12.31,3.686,7.549,3.541Z" transform="translate(721.904 1632.998)" fill="#f9fbfc" stroke="#707070" stroke-width="0.5"/>
  </g>
</svg>
