<?xml version="1.0" encoding="UTF-8"?><svg id="Calque_2" xmlns="http://www.w3.org/2000/svg" viewBox="0 0 382.57 369.89" fill="#6B8C30"><g id="Calque_1-2"><path d="M194.66,291.31l-26.84-5.84,26.84,5.85,9.42,1.67-9.42-1.68ZM194.66,291.31l-26.84-5.84,26.84,5.85,9.42,1.67-9.42-1.68ZM302.74,306.8l-6.07,19.39-44.11,3.58-42.64,1.69-41.97,14.01-43.85,7.47-27.88-34.88-30.07-31.71-18.64-24.82-9.61-2.72-1.19-.33-.96-.78-3.87-3.15-2.28-1.85.07-2.94.15-6.93.08-3.3,2.23-1.34-14.55-24.5,7.82-17.52-3.8-4.89-3.41-4.39,4.12-3.74,5.88-5.32,1.67-1.51,2.24-.04,2.2-.04,1.24-2.78,20.47-37.96,10.65-43.72-16.56,1.98-8.8,36.09-19.51,36.19-.28.52-.24.53L3.31,207.32l-3.31,7.39,4.14,6.96,22.67,38.17.44.73.5.68,25.91,34.49.53.71.62.65,29.61,31.24,27.47,34.36,5.75,7.19,9.08-1.55,43.85-7.46,1.19-.21,1.14-.38,39.85-13.3,40.43-1.6h.33s.32-.04.32-.04l44.11-3.58,10.5-.86,3.15-10.05,7.94-25.37-16.79,1.31ZM374.75,135.17l-27.43-29.6-24.83-30.55-22.9-33.97-.32-.46-.34-.44-25.69-32.81-5.75-7.34-9.2,1.58-46.66,8-.4.07-.39.09-46.15,10.4-43.2,7.91-43.89,5.08-10.27,1.18-2.93,9.91-5,16.93,16.89-2.01,3.1-10.49,44.4-5.13,44.03-8.06,46.45-10.48,46.67-8,25.69,32.81,23.29,34.54,25.59,31.5,27.78,29.96-17.33,45.62-15,46.38-.92,1.97,17.34-1.94,13.33-41.23,17.19-45.24,3.44-9.07-6.59-7.11ZM112.41,63.9l1.57,13.18h.01l-1.58-13.18ZM194.66,291.31l-26.84-5.84,26.84,5.85,9.42,1.67-9.42-1.68Z"/><polygon points="113.99 77.08 113.98 77.08 112.41 63.9 113.99 77.08"/><polygon points="204.08 292.99 194.66 291.32 167.82 285.47 194.66 291.31 204.08 292.99"/><polygon points="292.34 193.57 279.4 212.05 286.65 220.67 298.41 220.44 287.97 230.16 269.2 236.01 250.38 241.73 231.68 247.76 213.44 254.99 194.11 262.24 197.28 283.1 204.08 292.99 194.66 291.31 167.82 285.47 171.43 305.46 175.21 324.65 170.27 330.6 164.35 326.39 162.79 302.5 157.37 279.66 155.76 255.77 152.38 233.23 162.4 231.73 168.97 236.41 179.79 244.9 174.8 232 171.96 227.19 191.33 224.64 209.16 216.89 220.96 213.23 224.23 207.7 217.76 203.31 209 204.58 204.33 197.94 194.65 184.43 196.43 200.94 197.79 205.88 176.3 214.63 153.25 220.25 157.13 191.87 160.72 190.24 165.08 192.79 181.21 198.23 173.08 186.56 165.8 182.33 161.26 177.79 168.22 163 172.32 142.56 167.22 135.18 156.32 138.99 153.79 153.83 147.88 149.85 138.07 141.65 140.19 154.02 143.08 159.94 151.28 164.26 148.86 184.2 143.27 203.65 137.96 217.55 125.93 216.53 127.46 205.61 126.04 190.45 120.96 203.57 116.9 212.98 87.01 202.84 85.57 206.07 78.06 208.3 81.5 217.87 93.17 221.39 89.37 230.2 91.04 247.38 100.46 234.2 99.58 223.01 119.93 228.24 139.15 233.8 144.51 257.78 146.55 284.54 130.4 289.52 121.13 299.36 111.2 298.35 110.89 295.16 113.01 266.44 86.91 263.5 62.94 259.66 41.57 253.62 39.53 253.04 35.67 249.9 35.79 244.35 35.82 242.97 59.34 228.79 44.97 208.32 30.39 192.81 28.17 189.96 26.34 187.6 31.18 183.22 32.22 182.28 54.26 181.86 75.7 182.16 76.1 154.13 75.93 151.85 82.79 148.43 100.15 159.97 115.02 173.13 112.91 154.38 114.24 134.43 114.52 114.5 114.4 94.58 116.51 93.07 121.84 89.78 139.54 103.19 156.55 86.88 175.42 72.34 190.58 53.94 193.87 50.58 201.29 57.43 199.02 77.27 203.39 95.37 218.2 93.66 234.81 94.67 238.49 96.49 239.6 101.07 225.82 120.76 216.15 142.68 203.02 164.87 221.91 154.1 239.48 145.71 256.46 136.31 258.72 136.62 265.36 140.46 263.59 164.42 283.69 165.5 305.7 170.79 306.98 169.9 310.59 171.4 309.42 176.98 292.34 193.57"/><polygon points="382.57 256.3 348.81 260.07 337.15 261.38 318.92 263.41 318.92 263.42 269.14 268.98 267.67 255.78 325.55 249.31 343.78 247.27 355.25 245.99 381.09 243.1 382.57 256.3"/><polygon points="113.98 77.08 69.43 82.39 52.54 84.41 41.77 85.69 8.71 89.63 7.14 76.44 45.82 71.83 56.63 70.54 73.52 68.53 112.41 63.9 113.98 77.08"/><polygon points="113.99 77.08 113.98 77.08 112.41 63.9 113.99 77.08"/><path d="M112.41,63.9l1.57,13.18h.01l-1.58-13.18ZM112.41,63.9l1.57,13.18h.01l-1.58-13.18ZM112.41,63.9l1.57,13.18h.01l-1.58-13.18Z"/><polygon points="380.7 291.71 333.16 295.41 322.42 296.24 305.64 297.54 238.03 302.8 237 289.56 309.91 283.89 327.2 282.55 338.67 281.66 379.67 278.47 380.7 291.71"/></g></svg>