<svg xmlns="http://www.w3.org/2000/svg" viewBox="0 0 676.89 218.65"><defs><style>.cls-1{fill:#ff0;}.cls-2{fill:#000d44;}</style></defs><g id="Layer_2" data-name="Layer 2"><g id="Layer_1-2" data-name="Layer 1"><polygon class="cls-1" points="0 204.5 417.62 204.5 463.57 17.39 0 17.39 0 204.5"/><polygon class="cls-2" points="514.22 122.43 497.45 204.75 451.16 204.75 498.52 11.91 561.19 120.41 617.8 0 676.88 204.75 628.83 204.75 606.52 117.05 561.19 218.65 514.22 122.43"/><path class="cls-2" d="M153.44,139.81v25H62.1l46.42-50.5c6.63-7.23,13-17.48,13-27.88,0-7.24-5.13-14.77-13-14.77S96.16,77.87,96.16,85.55a27.62,27.62,0,0,0,.46,4.83H64.06C65,64.3,81.54,46.67,108.37,46.67c23.82,0,43.87,15.67,43.87,40.39,0,16.28-6.79,25.77-18.39,36.33l-17.64,16.42Z"/><path class="cls-2" d="M260.45,108c0,29.54-14.32,61.35-48.24,61.35S164,137.55,164,108s14.47-61.34,48.23-61.34S260.45,78.47,260.45,108Zm-67.08-.15c0,11,3.62,35.42,18.84,35.42s18.84-24.42,18.84-35.42-3.61-35.12-18.84-35.12S193.37,96.86,193.37,107.86Z"/><path class="cls-2" d="M339.11,51.19h36.63L330.52,105l49.29,59.84H341.53l-38.14-49.29h-.3v49.29H273.55V51.19h29.54V98.06h.3Z"/></g></g></svg>