<?xml version="1.0" encoding="UTF-8"?><svg id="Calque_2" xmlns="http://www.w3.org/2000/svg" viewBox="0 0 332.59 148.67"><defs><style>.cls-1{fill:#fff;}</style></defs><g id="Calque_1"><path class="cls-1" d="M72.67.26h27.29l-5.63,64.4c-.67,7.66-3.07,14.28-7.21,19.85-4.14,5.58-9.59,9.88-16.37,12.91-6.78,3.03-14.47,4.54-23.07,4.54s-16.13-1.51-22.38-4.54c-6.25-3.03-10.93-7.33-14.06-12.91-3.13-5.58-4.36-12.2-3.69-19.85L13.18.26h27.29l-5.43,62.04c-.27,3.11.17,5.88,1.33,8.32,1.16,2.44,2.9,4.34,5.22,5.72,2.32,1.37,5.03,2.06,8.14,2.06s5.98-.69,8.53-2.06c2.54-1.37,4.61-3.28,6.19-5.72,1.59-2.44,2.52-5.21,2.79-8.32L72.67.26Z"/><path class="cls-1" d="M113.04,22.25l1.92-21.99h87.37l-1.92,21.99h-30.24l-6.87,78.54h-26.9l6.87-78.54h-30.24Z"/><polygon class="cls-1" points="178.55 148.02 0 148.02 2.39 123.23 180.94 123.23 178.55 148.02"/><path class="cls-1" d="M322.95,76.97c5.32-7.26,8.45-16.18,9.38-26.77.92-10.48-.58-19.48-4.49-26.97-3.91-7.51-9.8-13.26-17.69-17.25-4.75-2.4-10.08-4.09-15.96-5.04-3.86-.64-7.95-.95-12.3-.95h-63.78l-12.92,147.75,28.32.93,26.72-57.99,10.3.05,13.54,57.01h44.63l-25.18-55.08c7.97-3.68,14.45-8.91,19.43-15.7ZM256.83,73.64c-9.06-1.39-20.25-2.82-29.32-4.21-4.03-.63-4.54-6.23-.69-7.58,9.16-3.19,19.69-7.33,28.85-10.52l10.35,11.05-9.2,11.26ZM269.85,57.27l-9.88-12.55c3.62-9.42,8.23-20.37,11.85-29.78,1.53-3.95,7.33-3.24,7.85.97,1.14,9.47,1.3,20.48,2.45,29.94l-12.28,11.41ZM310.73,70.96c-9.06,1.39-19.57,2.58-28.63,3.97l-9.03-11.68,11.19-9.79c9.16,3.19,18.01,6.74,27.16,9.93,3.85,1.35,3.34,6.94-.69,7.58Z"/></g></svg>