<?xml version="1.0" encoding="UTF-8"?><svg id="Calque_2" xmlns="http://www.w3.org/2000/svg" viewBox="0 0 577.15 279.81"><defs><style>.cls-1{fill:#0781dd;}</style></defs><g id="Calque_1"><path d="M66.28,0h18.59l-3.84,43.86c-.46,5.21-2.09,9.72-4.91,13.52-2.82,3.8-6.53,6.73-11.15,8.79-4.61,2.06-9.85,3.09-15.71,3.09s-10.99-1.03-15.24-3.09c-4.25-2.06-7.45-4.99-9.58-8.79-2.13-3.8-2.97-8.31-2.51-13.52L25.76,0h18.59l-3.7,42.25c-.19,2.12.12,4.01.91,5.67.79,1.66,1.98,2.96,3.55,3.89,1.58.94,3.43,1.4,5.54,1.4s4.07-.47,5.81-1.4c1.73-.94,3.14-2.23,4.22-3.89,1.08-1.66,1.71-3.55,1.9-5.67L66.28,0Z"/><path d="M87.7,68.46L93.69,0h18.59l-4.68,53.48h27.68l-1.31,14.98h-46.26Z"/><path d="M144.25,14.98L145.56,0h59.5l-1.31,14.98h-20.59l-4.68,53.48h-18.32l4.68-53.48h-20.59Z"/><path d="M260.59,35.67c2.46-3.37,3.91-7.5,4.34-12.4.43-4.86-.27-9.03-2.08-12.5-1.81-3.48-4.55-6.14-8.19-7.99-3.65-1.85-8.02-2.78-13.1-2.78h-29.55l-5.99,68.46h18.59l1.98-22.6h6.43l10.04,22.6h20.19l-11.68-25.53c3.71-1.69,6.71-4.12,9.02-7.26ZM229.3,14.84h6.55c2.18,0,4.02.3,5.52.89,1.5.59,2.61,1.5,3.34,2.74.73,1.24,1,2.84.83,4.8-.17,1.94-.72,3.51-1.66,4.71-.94,1.2-2.21,2.08-3.81,2.62-1.6.55-3.49.82-5.67.82h-6.55l1.45-16.58Z"/><path d="M320.58,0h-25.4l-28.59,68.46h20.06l5.1-13.1h22.57l2.81,13.1h20.06L320.58,0ZM297.17,41.45l8.79-22.59h.54l1.56,7.29,3.28,15.3h-14.17Z"/><path d="M133.12,98.6l1.31-14.98h59.5l-1.31,14.98h-20.59l-4.68,53.48h-18.32l4.68-53.48h-20.59Z"/><path d="M264.21,117.85c-.67,7.62-2.71,14.04-6.13,19.27-3.42,5.23-7.77,9.18-13.04,11.87-5.27,2.69-11.01,4.03-17.2,4.03s-11.75-1.35-16.54-4.06c-4.79-2.71-8.43-6.67-10.93-11.9-2.5-5.23-3.41-11.63-2.75-19.2.67-7.62,2.7-14.04,6.12-19.27,3.41-5.23,7.74-9.18,13-11.87,5.26-2.69,11.01-4.03,17.25-4.03s11.69,1.34,16.49,4.03c4.8,2.69,8.45,6.64,10.96,11.87,2.51,5.23,3.43,11.65,2.76,19.27ZM245.09,117.85c.36-4.1.12-7.56-.71-10.38-.83-2.82-2.24-4.96-4.22-6.42-1.98-1.46-4.5-2.19-7.58-2.19s-5.73.73-7.96,2.19-4.01,3.6-5.34,6.42c-1.33,2.82-2.17,6.28-2.53,10.38-.36,4.1-.12,7.56.71,10.38.83,2.82,2.24,4.96,4.22,6.42,1.98,1.46,4.5,2.19,7.58,2.19s5.73-.73,7.96-2.19c2.23-1.46,4.01-3.6,5.34-6.42,1.33-2.82,2.17-6.28,2.53-10.38Z"/><path d="M316.27,83.62h18.59l-3.84,43.86c-.46,5.21-2.09,9.72-4.91,13.52-2.82,3.8-6.53,6.73-11.15,8.79-4.61,2.06-9.85,3.09-15.71,3.09s-10.99-1.03-15.24-3.09c-4.25-2.06-7.45-4.99-9.58-8.79-2.13-3.8-2.97-8.31-2.51-13.52l3.84-43.86h18.59l-3.7,42.25c-.19,2.12.12,4.01.91,5.67.79,1.66,1.98,2.96,3.55,3.89,1.58.94,3.43,1.4,5.54,1.4s4.07-.47,5.81-1.4c1.73-.94,3.14-2.23,4.22-3.89,1.08-1.66,1.71-3.55,1.9-5.67l3.7-42.25Z"/><path d="M392.25,119.29c2.47-3.37,3.92-7.5,4.35-12.4.42-4.86-.27-9.03-2.08-12.5-1.82-3.48-4.55-6.14-8.2-7.99-3.65-1.85-8.01-2.78-13.09-2.78h-29.55l-5.99,68.46h18.59l1.98-22.6h6.42l10.05,22.6h20.19l-11.68-25.53c3.7-1.69,6.71-4.12,9.01-7.26ZM377.21,106.89c-.17,1.94-.72,3.51-1.67,4.71-.94,1.2-2.21,2.08-3.8,2.62-1.6.55-3.49.82-5.67.82h-6.55l1.45-16.58h6.55c2.18,0,4.02.3,5.52.89s2.61,1.5,3.34,2.74c.72,1.24,1,2.84.83,4.8Z"/><path d="M30.38,235.32H4.18l5.96-68.08h25.93c7,0,12.94,1.36,17.81,4.07,4.87,2.71,8.47,6.61,10.81,11.7,2.34,5.09,3.19,11.17,2.57,18.27-.62,7.09-2.54,13.18-5.75,18.27-3.22,5.09-7.48,8.99-12.79,11.7-5.31,2.71-11.43,4.07-18.34,4.07ZM24.04,219.63h7.05c3.37,0,6.29-.54,8.77-1.63,2.48-1.09,4.46-2.96,5.94-5.62,1.48-2.66,2.43-6.36,2.85-11.1.41-4.74.1-8.44-.94-11.1-1.04-2.66-2.74-4.53-5.09-5.62-2.35-1.09-5.3-1.63-8.85-1.63h-6.52l-3.21,36.7Z"/><path d="M72.79,235.32l5.96-68.08h49.07l-1.3,14.89h-30.58l-1.02,11.7h28.06l-1.3,14.89h-28.06l-1.02,11.7h30.45l-1.3,14.89h-48.93Z"/><path d="M148.75,235.32l5.96-68.08h18.48l-4.65,53.19h27.52l-1.3,14.89h-46.01Z"/><path d="M253.63,167.24h-25.26l-28.43,68.08h19.94l5.07-13.03h22.46l2.79,13.03h19.95l-16.52-68.08ZM230.34,208.46l8.75-22.47h.53l4.82,22.47h-14.1Z"/><path class="cls-1" d="M376.12,225.04c4.1-5.59,6.51-12.46,7.22-20.61.71-8.07-.45-15-3.46-20.77-3.01-5.78-7.55-10.21-13.62-13.28-3.66-1.85-7.76-3.15-12.29-3.88-2.97-.49-6.12-.73-9.47-.73h-49.11l-9.95,113.77h30.88l3.29-37.55h10.69l13.89,31.24h0s2.8,6.31,2.8,6.31h33.56l-19.39-42.41c6.14-2.83,11.13-6.86,14.96-12.09ZM351.12,204.43c-.15,1.77-.5,3.36-1.06,4.76h0c-.43,1.16-1.01,2.18-1.71,3.08-1.57,2-3.67,3.45-6.33,4.36-2.65.91-5.79,1.36-9.42,1.36h-10.89l2.41-27.56h10.89c3.63,0,6.69.5,9.18,1.48,2.48.98,4.33,2.5,5.54,4.55.56.95.96,2.04,1.19,3.25v.02c.29,1.4.35,2.96.2,4.7Z"/><path class="cls-1" d="M432.03,165.77l-9.95,113.78h-30.89l9.95-113.78h30.89Z"/><polygon points="259.05 279.54 0 279.54 1.94 257.38 260.99 257.38 259.05 279.54"/><polygon points="575.21 45.32 365.66 45.32 367.6 23.15 577.15 23.15 575.21 45.32"/><polygon points="568.37 128.93 423.58 128.93 425.52 106.77 570.31 106.77 568.37 128.93"/><path class="cls-1" d="M536.3,166.09h-42.2l-57.59,113.72h33.32c3.78-4.14,7.57-8.27,11.35-12.41,7.35-8.03,14.03-16.65,19.96-25.78.98-1.51,1.97-3.03,2.95-4.54.45,1.37.9,2.75,1.35,4.12,3.44,10.53,7.75,20.76,12.9,30.58,1.35,2.57,2.69,5.13,4.04,7.7,10.47.11,20.94.22,31.41.32l-17.49-113.72ZM494.91,240.09c-7.49-1.15-14.99-2.3-22.48-3.45-3.33-.52-3.75-5.15-.57-6.26,7.57-2.64,14.53-6.09,22.1-8.73l8.56,9.13-7.6,9.31ZM497.44,213.91c3-7.78,5.99-15.57,8.99-23.35,1.27-3.27,6.06-2.68,6.49.8.95,7.83,1.89,15.66,2.84,23.49l-10.15,9.44-8.17-10.37ZM537.43,236.88c-7.49,1.15-14.99,2.3-22.48,3.45l-7.47-9.66,9.25-8.09c7.57,2.64,13.7,5.4,21.27,8.04,3.18,1.12,2.76,5.74-.57,6.26Z"/></g></svg>